<svg width="140" height="41" viewBox="0 0 140 41" fill="none" xmlns="http://www.w3.org/2000/svg">
<path d="M75.7813 39.9999C73.1628 39.9999 71.1334 39.1878 69.6932 37.5636C68.2531 35.9395 67.533 33.6165 67.533 30.5948V3.05945H72.2463V30.3682C72.2463 31.9924 72.59 33.2388 73.2773 34.1076C73.9974 34.9763 75.0121 35.4107 76.3213 35.4107C77.7942 35.4107 79.0216 34.9385 80.0036 33.9942L81.4765 37.9036C80.7564 38.6212 79.889 39.15 78.8744 39.49C77.8924 39.8299 76.8614 39.9999 75.7813 39.9999ZM63.1143 14.1076V9.63168H79.709V14.1076H63.1143Z" fill="black"/>
<path d="M48.3715 40C45.5894 40 43.1345 39.339 41.007 38.017C38.9122 36.695 37.2756 34.882 36.0973 32.5779C34.9517 30.2739 34.3789 27.6299 34.3789 24.6459C34.3789 21.662 34.9353 19.018 36.0482 16.7139C37.1938 14.4099 38.7485 12.6157 40.7124 11.3315C42.709 10.0095 44.9511 9.34851 47.4387 9.34851C49.959 9.34851 52.1847 9.99062 54.1159 11.2749C56.047 12.5591 57.5526 14.3721 58.6328 16.7139C59.7456 19.018 60.3021 21.7187 60.3021 24.8159C60.3021 25.0425 60.2857 25.3069 60.253 25.6091C60.253 25.9113 60.2366 26.1946 60.2039 26.459H38.0612V22.5496H57.749L55.8342 23.9094C55.867 21.9831 55.5233 20.2645 54.8032 18.7536C54.0831 17.2427 53.0848 16.0718 51.8083 15.2409C50.5645 14.3721 49.108 13.9377 47.4387 13.9377C45.8021 13.9377 44.3456 14.3721 43.0691 15.2409C41.7925 16.0718 40.7942 17.2616 40.0741 18.8103C39.3541 20.3211 38.994 22.0586 38.994 24.0227V24.9292C38.994 26.9311 39.3868 28.7253 40.1723 30.3117C40.9906 31.8603 42.1198 33.069 43.56 33.9377C45.0002 34.8065 46.6531 35.2408 48.5188 35.2408C50.0572 35.2408 51.4483 34.9387 52.692 34.3343C53.9686 33.73 55.0814 32.8235 56.0306 31.6148L58.6328 35.1275C57.4544 36.7139 55.9815 37.9226 54.214 38.7536C52.4793 39.5845 50.5318 40 48.3715 40Z" fill="black"/>
<path d="M15.1218 39.66L0 0H5.30246L19.1969 36.6005H16.1529L30.1455 0H35.0552L19.9824 39.66H15.1218Z" fill="black"/>
<path d="M114.273 39.6599L125.468 22.8894L125.418 25.6656L114.764 9.63159H120.018L128.168 21.9828H126.155L134.305 9.63159H139.46L128.659 25.7789L128.708 22.8894L140 39.6599H134.649L126.057 26.5154L127.971 26.8554L119.527 39.6599H114.273Z" fill="black"/>
<path d="M98.2427 39.66C106.716 39.66 113.585 31.733 113.585 21.9546C113.585 12.1762 106.716 4.24927 98.2427 4.24927C89.7691 4.24927 82.8999 12.1762 82.8999 21.9546C82.8999 31.733 89.7691 39.66 98.2427 39.66ZM98.2427 39.66L98.3999 23.9547M98.8999 22.257L110.297 11M97.9304 22.257L86.1884 11M102.846 21.9546C102.846 24.8881 100.785 27.2662 98.2427 27.2662C95.7006 27.2662 93.6398 24.8881 93.6398 21.9546C93.6398 19.0211 95.7006 16.643 98.2427 16.643C100.785 16.643 102.846 19.0211 102.846 21.9546Z" stroke="#E63946" stroke-width="2.24202" stroke-linecap="round"/>
<path d="M104 22C104 25.3137 101.538 28.5 98.5 28.5C95 28.5 92.5 25.3137 92.5 22C92.5 18.6863 95 15.5 98.5 15.5C101.538 15.5 104 18.6863 104 22Z" fill="#E63946"/>
</svg>
