<svg width="79" height="24" viewBox="0 0 79 24" fill="none" xmlns="http://www.w3.org/2000/svg">
<path d="M42.4759 22.4201C41.0082 22.4201 39.8708 21.965 39.0635 21.0546C38.2563 20.1442 37.8527 18.8422 37.8527 17.1485V1.71484H40.4945V17.0215C40.4945 17.9319 40.6872 18.6305 41.0724 19.1174C41.476 19.6044 42.0448 19.8478 42.7786 19.8478C43.6042 19.8478 44.2922 19.5832 44.8425 19.0539L45.6681 21.2451C45.2645 21.6474 44.7783 21.9438 44.2096 22.1343C43.6592 22.3249 43.0813 22.4201 42.4759 22.4201ZM35.376 7.90738V5.39861H44.6774V7.90738H35.376Z" fill="#212529"/>
<path d="M27.1125 22.4202C25.5531 22.4202 24.1771 22.0497 22.9846 21.3087C21.8105 20.5677 20.8932 19.5515 20.2327 18.2601C19.5906 16.9686 19.2695 15.4867 19.2695 13.8141C19.2695 12.1416 19.5814 10.6597 20.2052 9.36822C20.8473 8.07679 21.7187 7.07116 22.8195 6.35135C23.9386 5.61036 25.1953 5.23987 26.5896 5.23987C28.0022 5.23987 29.2498 5.59978 30.3322 6.31959C31.4146 7.03941 32.2585 8.05562 32.864 9.36822C33.4877 10.6597 33.7996 12.1734 33.7996 13.9094C33.7996 14.0364 33.7904 14.1846 33.7721 14.354C33.7721 14.5234 33.7629 14.6822 33.7446 14.8304H21.3335V12.6391H32.3686L31.2954 13.4013C31.3137 12.3216 31.1211 11.3583 30.7175 10.5115C30.3139 9.66462 29.7543 9.00832 29.0388 8.54255C28.3417 8.05562 27.5253 7.81215 26.5896 7.81215C25.6723 7.81215 24.8559 8.05562 24.1404 8.54255C23.4249 9.00832 22.8654 9.6752 22.4617 10.5432C22.0581 11.3901 21.8563 12.3639 21.8563 13.4648V13.9729C21.8563 15.095 22.0765 16.1006 22.5168 16.9898C22.9754 17.8578 23.6084 18.5353 24.4156 19.0222C25.2228 19.5092 26.1493 19.7526 27.195 19.7526C28.0573 19.7526 28.837 19.5833 29.5341 19.2445C30.2496 18.9058 30.8734 18.3977 31.4054 17.7202L32.864 19.6891C32.2035 20.5783 31.3779 21.2558 30.3872 21.7215C29.4149 22.1873 28.3233 22.4202 27.1125 22.4202Z" fill="#212529"/>
<path d="M8.47587 22.2296L0 0H2.97206L10.76 20.5147H9.05377L16.8967 0H19.6486L11.2003 22.2296H8.47587Z" fill="#212529"/>
<path d="M64.0508 22.2295L70.3251 12.8296L70.2976 14.3857L64.326 5.39856H67.2705L71.8387 12.3215H70.7104L75.2786 5.39856H78.1681L72.1139 14.4492L72.1414 12.8296L78.4708 22.2295H75.4712L70.6554 14.862L71.7286 15.0526L66.9953 22.2295H64.0508Z" fill="#212529"/>
<path d="M55.1536 21.1086V13.4267M55.4339 12.4751L60.4956 7.23359M54.8905 12.4751L49.8288 7.23359M63.6652 12.3056C63.6652 17.7865 59.815 22.2296 55.0655 22.2296C50.316 22.2296 46.4658 17.7865 46.4658 12.3056C46.4658 6.82481 50.316 2.38171 55.0655 2.38171C59.815 2.38171 63.6652 6.82481 63.6652 12.3056ZM57.6454 12.3056C57.6454 13.9499 56.4904 15.2828 55.0655 15.2828C53.6407 15.2828 52.4856 13.9499 52.4856 12.3056C52.4856 10.6614 53.6407 9.32846 55.0655 9.32846C56.4904 9.32846 57.6454 10.6614 57.6454 12.3056Z" stroke="#E63946" stroke-width="2.24202" stroke-linecap="round"/>
</svg>
