<svg width="462" height="133" viewBox="0 0 462 133" fill="none" xmlns="http://www.w3.org/2000/svg">
<path d="M250.081 132C241.44 132 234.744 129.32 229.991 123.961C225.238 118.601 222.862 110.935 222.862 100.963V10.0967H238.416V100.216C238.416 105.575 239.55 109.689 241.818 112.556C244.195 115.422 247.543 116.856 251.864 116.856C256.724 116.856 260.775 115.298 264.015 112.182L268.876 125.082C266.499 127.451 263.637 129.196 260.289 130.318C257.048 131.439 253.646 132 250.081 132ZM208.28 46.5556V31.785H263.043V46.5556H208.28Z" fill="#F8F9FA"/>
<path d="M159.626 132C150.445 132 142.344 129.819 135.323 125.456C128.41 121.094 123.009 115.111 119.121 107.507C115.34 99.904 113.45 91.1788 113.45 81.3318C113.45 71.4848 115.286 62.7595 118.959 55.1561C122.739 47.5528 127.87 41.6321 134.351 37.3941C140.94 33.0315 148.338 30.8502 156.547 30.8502C164.865 30.8502 172.209 32.9692 178.582 37.2072C184.955 41.4451 189.924 47.4281 193.488 55.1561C197.16 62.7595 198.997 71.6717 198.997 81.8927C198.997 82.6405 198.943 83.5131 198.835 84.5102C198.835 85.5074 198.781 86.4422 198.673 87.3148H125.602V74.4139H190.572L184.253 78.9012C184.361 72.5442 183.227 66.8729 180.85 61.887C178.474 56.9012 175.18 53.0372 170.967 50.295C166.863 47.4281 162.056 45.9947 156.547 45.9947C151.147 45.9947 146.34 47.4281 142.128 50.295C137.915 53.0372 134.621 56.9635 132.244 62.074C129.868 67.0598 128.68 72.7935 128.68 79.2751V82.2666C128.68 88.8728 129.976 94.7935 132.569 100.029C135.269 105.139 138.995 109.128 143.748 111.995C148.5 114.861 153.955 116.295 160.112 116.295C165.189 116.295 169.779 115.298 173.884 113.303C178.096 111.309 181.769 108.318 184.901 104.329L193.488 115.921C189.6 121.156 184.739 125.145 178.906 127.887C173.182 130.629 166.755 132 159.626 132Z" fill="#F8F9FA"/>
<path d="M49.9021 130.878L0 0H17.4981L63.3498 120.782H53.3045L99.4802 0H115.682L65.9421 130.878H49.9021Z" fill="#F8F9FA"/>
<path d="M377.103 130.878L414.043 75.5353L413.881 84.6968L378.723 31.7847H396.059L422.954 72.5438H416.311L443.207 31.7847H460.219L424.574 85.0707L424.736 75.5353L462.001 130.878H444.341L415.987 87.5013L422.306 88.6231L394.439 130.878H377.103Z" fill="#F8F9FA"/>
<path d="M324.203 130.878C352.166 130.878 374.835 104.719 374.835 72.4507C374.835 40.1819 352.166 14.0229 324.203 14.0229C296.241 14.0229 273.572 40.1819 273.572 72.4507C273.572 104.719 296.241 130.878 324.203 130.878ZM324.203 130.878L324.722 79.0508M326.372 73.4484L363.362 35.4102M323.173 73.4484L286.643 33.2699M339.727 72.4206C339.727 82.1012 332.926 89.9489 324.537 89.9489C316.148 89.9489 309.348 82.1012 309.348 72.4206C309.348 62.74 316.148 54.8923 324.537 54.8923C332.926 54.8923 339.727 62.74 339.727 72.4206Z" stroke="#E63946" stroke-width="4" stroke-linecap="round"/>
</svg>
